<svg fill="#0088AA" viewBox="0 0 24 24" height="24" width="24" xmlns="http://www.w3.org/2000/svg">
  <path d="M12 2C6.48 2 2 6.59 2 12.5c0 4.05 2.61 7.5 6.14 8.84.45.08.61-.2.61-.44 0-.22-.01-.95-.01-1.86-2.5.54-3.03-1.2-3.03-1.2-.41-1.04-1-.13-1-.13-.82-.56.06-.55.06-.55.9.06 1.38.93 1.38.93.8 1.37 2.1 1 2.1 1 .64-.5 1.63-.6 2.04-.72.08-.56.31-.94.56-1.16-2-.23-4.1-1-4.1-4.44 0-.98.35-1.78.92-2.41-.09-.23-.4-1.15.09-2.4 0 0 .75-.24 2.46.92 1.42-.39 2.95-.39 4.37 0 1.71-1.16 2.46-.92 2.46-.92.49 1.25.18 2.17.09 2.4.57.63.92 1.43.92 2.41 0 3.45-2.1 4.2-4.1 4.43.32.28.6.83.6 1.68 0 1.21-.01 2.19-.01 2.48 0 .24.16.53.61.44C19.39 19.99 22 16.54 22 12.5 22 6.59 17.52 2 12 2z"></path>
</svg>
